{
	"asset":{
		"generator":"Khronos glTF Blender I/O v4.3.47",
		"version":"2.0"
	},
	"scene":0,
	"scenes":[
		{
			"name":"Scene",
			"nodes":[
				0
			]
		}
	],
	"nodes":[
		{
			"mesh":0,
			"name":"tripo_node_1f93303e-3f9a-467c-9ec7-992a43b5dc69",
			"translation":[
				0,
				0.4991615116596222,
				0
			]
		}
	],
	"materials":[
		{
			"name":"tripo_material_1f93303e-3f9a-467c-9ec7-992a43b5dc69",
			"normalTexture":{
				"index":0
			},
			"pbrMetallicRoughness":{
				"baseColorTexture":{
					"index":1
				},
				"metallicRoughnessTexture":{
					"index":2
				}
			}
		}
	],
	"meshes":[
		{
			"name":"tripo_mesh_1f93303e-3f9a-467c-9ec7-992a43b5dc69",
			"primitives":[
				{
					"attributes":{
						"POSITION":0,
						"NORMAL":1,
						"TEXCOORD_0":2
					},
					"indices":3,
					"material":0
				}
			]
		}
	],
	"textures":[
		{
			"sampler":0,
			"source":0
		},
		{
			"sampler":0,
			"source":1
		},
		{
			"sampler":0,
			"source":2
		}
	],
	"images":[
		{
			"mimeType":"image/jpeg",
			"name":"NormalGL_1f93303e-3f9a-467c-9ec7-992a43b5dc69",
			"uri":"NormalGL_1f93303e-3f9a-467c-9ec7-992a43b5dc69.jpg"
		},
		{
			"mimeType":"image/jpeg",
			"name":"Color_1f93303e-3f9a-467c-9ec7-992a43b5dc69",
			"uri":"Color_1f93303e-3f9a-467c-9ec7-992a43b5dc69.jpg"
		},
		{
			"mimeType":"image/jpeg",
			"name":"ORM_1f93303e-3f9a-467c-9ec7-992a43b5dc69",
			"uri":"ORM_1f93303e-3f9a-467c-9ec7-992a43b5dc69.jpg"
		}
	],
	"accessors":[
		{
			"bufferView":0,
			"componentType":5126,
			"count":212459,
			"max":[
				0.24073268473148346,
				0.49999868869781494,
				0.19657550752162933
			],
			"min":[
				-0.24073560535907745,
				-0.5,
				-0.19658344984054565
			],
			"type":"VEC3"
		},
		{
			"bufferView":1,
			"componentType":5126,
			"count":212459,
			"type":"VEC3"
		},
		{
			"bufferView":2,
			"componentType":5126,
			"count":212459,
			"type":"VEC2"
		},
		{
			"bufferView":3,
			"componentType":5125,
			"count":1221672,
			"type":"SCALAR"
		}
	],
	"bufferViews":[
		{
			"buffer":0,
			"byteLength":2549508,
			"byteOffset":0,
			"target":34962
		},
		{
			"buffer":0,
			"byteLength":2549508,
			"byteOffset":2549508,
			"target":34962
		},
		{
			"buffer":0,
			"byteLength":1699672,
			"byteOffset":5099016,
			"target":34962
		},
		{
			"buffer":0,
			"byteLength":4886688,
			"byteOffset":6798688,
			"target":34963
		}
	],
	"samplers":[
		{
			"magFilter":9729,
			"minFilter":9987
		}
	],
	"buffers":[
		{
			"byteLength":11685376,
			"uri":"arcade.bin"
		}
	]
}
